<svg id="Layer_1" data-name="Layer 1" xmlns="http://www.w3.org/2000/svg" viewBox="0 0 1190.55 841.89"><defs><style>.cls-1{fill:#1d1d1b;}</style></defs><path class="cls-1" d="M62.09,537.62c0-41.31,20-62.06,70.59-71.51C173.07,466.11,199,493.9,199,531c0,41.31-20,62.06-70.59,71.51C88,602.47,62.09,574.68,62.09,537.62Zm106.16-.18c0-27.61-11.67-58.92-39.83-58.92-24.64,0-35.57,21.86-35.57,52.62,0,28.16,12,58.92,40.2,58.92C157.69,590.06,168.25,568,168.25,537.44Z"/><path class="cls-1" d="M194.56,480.19l-12.23-2.41.93-8.52,32.05.56,22.05-.56.92,8.52-13.52,2.41,29.64,85.6v12.78l33.72-98.38-14.45-2.41.93-8.52,20,.56,18.53-.56.93,8.52-11.67,2.41-43,116.72-20.56,5.38Z"/><path class="cls-1" d="M318.69,590.61l14.45-2.4v-108l-14.45-2.41.92-8.52,25.57.56,78.19-.56,2,35.57h-9.64l-10.93-24.08-43.35-.56v45.58L383,525l7.41-19.83h9.26l-1.85,25.38,1.85,26.13h-9.26L383,537.07l-21.49-.74v52.06l45.39-.56,12.6-25h9.82l-6.12,36.5-78-.55-25.57.55Z"/><path class="cls-1" d="M553.06,590.8l-.74,8.52-20.2-.55-15.19.55L481,542.07l-2.41-2h-8.34v48.18l14.08,2.4-.93,8.71-27.23-.55-27.79.55-.93-8.71,14.45-2.4v-108l-14.45-2.41.93-8.52,27.42.56,41.31-.56c22.42-.19,40.21,11.12,40.21,32.24,0,19.82-18.53,30.2-40.39,34.83l19.45,9.08,27.79,42.42Zm-82.82-61.33h12c13.9,0,24.83-10,24.83-26.49,0-16.31-10-24.46-22.79-24.64l-14.08,1.29Z"/><path class="cls-1" d="M561.39,590.61l20-2.4V480l-22.78.56-9.08,26.12h-9.45V469.26l56.51.56,54.47-.56v37.42h-9.45l-9.08-26.12L609.75,480V588.21l19.64,2.4-.93,8.71-32.79-.55-33.35.55Z"/><path class="cls-1" d="M654,590.61l14.45-2.4v-108L654,477.78l.92-8.52,27.8.56,26.12-.56.93,8.52-13,2.41v46.13h50.39V480.19l-13.34-2.41.93-8.52,26.49.56,27.42-.56.93,8.52-14.08,2.41v108l14.08,2.4-.93,8.71-27.42-.55-26.49.55-.93-8.71,13.34-2.4v-50.4H696.83v50.4l13,2.4-.93,8.71-26.12-.55-27.8.55Z"/><path class="cls-1" d="M795.39,590.61l14.45-2.4v-108l-14.45-2.41.93-8.52,27.79.56,27.6-.56.93,8.52-14.45,2.41v108l14.45,2.4-.93,8.71-27.6-.55-27.79.55Z"/><path class="cls-1" d="M891.36,509.09l-4.26-17v96.16l13.71,2.4-.56,8.71-20.19-.55-20.75.55-.93-8.71,14.45-2.4V480.75l-14.08-3,.93-8.52,15.19.56,19.64-.56,59.66,76.33,5,15.94V480.19l-13.71-2.41.55-8.52,20.2.56,20.75-.56.93,8.52-14.46,2.41v119.5H959.54Z"/><path class="cls-1" d="M991.59,590.61l14.45-2.4v-108l-14.45-2.41.93-8.52,27.79.56,25.94-.56.92,8.52-12.78,2.41v49.1l5.56-2.78,48.72-46.32-13.52-2.41.92-8.52,20.38.56,22.24-.56.92,8.52-14.08,2.6-51.32,48,8.15,3.52,51.32,56.51,9.82,2.22-.92,8.71-15.75-.55-21.12.55-48-58.55-3.33-7v54.48l12.78,2.4-.92,8.71-25.94-.55-27.79.55Z"/><polygon class="cls-1" points="603.25 358.39 584.26 359.81 581.63 371.12 583.05 384.86 589.71 386.07 608.7 384.86 611.13 373.34 609.91 359.81 603.25 358.39"/><path class="cls-1" d="M668.11,261.64c.2-.86.39-1.73.56-2.62.05-.22.09-.45.13-.68.15-.75.28-1.52.4-2.29l.12-.71c.14-.92.27-1.84.38-2.78l0-.21c.12-1,.23-2.06.32-3.11,0-.24,0-.48.06-.72.07-.79.13-1.59.17-2.4l.06-1c0-.77.07-1.53.1-2.31l0-1c0-1.09,0-2.18,0-3.3h0c0-2.52-.11-5-.33-7.45-.1-1.22-.24-2.43-.4-3.62q-.49-3.6-1.29-7c-.27-1.14-.56-2.28-.88-3.4-.63-2.25-1.37-4.44-2.2-6.57a69.74,69.74,0,0,0-4.41-9.17,65.44,65.44,0,0,0-5.68-8.27,63.4,63.4,0,0,0-4.45-5c-12.58-12.62-30.66-20.2-52.67-20.2a197.86,197.86,0,0,0-22.15,5.38c-3.28,1-6.42,2.1-9.38,3.26a95.25,95.25,0,0,0-14,6.77,69.81,69.81,0,0,0-6,3.93,64.77,64.77,0,0,0-5.29,4.31,57.19,57.19,0,0,0-8.62,9.85,56.31,56.31,0,0,0-4.83,8.51,63.21,63.21,0,0,0-3.49,9.52q-.94,3.35-1.61,6.93c-.45,2.4-.8,4.87-1.06,7.43a119.64,119.64,0,0,0-.58,12.09h0A79.53,79.53,0,0,0,523.31,264v.07c.36,1.54.78,3.05,1.24,4.54l13.89-.68,19.45-3.83c-.6-2.34-1.1-4.72-1.53-7.12-.16-.91-.3-1.82-.44-2.73-.07-.45-.14-.89-.2-1.34s-.09-.76-.14-1.14c-.07-.55-.13-1.1-.19-1.66,0-.31-.07-.62-.1-.94q-.1-1-.18-2l0-.36c-.08-1.06-.14-2.13-.19-3.2,0-.54,0-1.07-.06-1.61,0-1.09-.06-2.19-.06-3.27a100,100,0,0,1,3.58-28.17,55.51,55.51,0,0,1,4.59-11.14c.59-1.07,1.22-2.08,1.88-3.07a33.48,33.48,0,0,1,11.34-10.74,30.8,30.8,0,0,1,3.84-1.83,36.6,36.6,0,0,1,13.55-2.42c16.31,0,27.55,9.63,34.5,23.18.41.8.8,1.61,1.18,2.43a74.19,74.19,0,0,1,3,7.7,91.34,91.34,0,0,1,3.34,13.82c.31,1.89.57,3.8.77,5.7s.36,3.82.46,5.72.15,3.8.15,5.68c0,1.12,0,2.21,0,3.3l0,1c0,.76,0,1.51-.09,2.26l-.06,1.13c0,.71-.09,1.42-.15,2.12,0,.36-.05.71-.08,1.06-.07.78-.14,1.55-.22,2.31,0,.26,0,.52-.08.77q-.36,3.09-.87,6c0,.21-.09.42-.13.64-.14.76-.29,1.51-.44,2.25-.06.24-.11.49-.17.73-.16.72-.33,1.44-.51,2.15-.05.21-.11.42-.16.63-.22.82-.45,1.63-.69,2.42l-.06.23c-.55,1.8-1.17,3.52-1.85,5.18l-.15.37c-.29.68-.58,1.35-.89,2-.08.17-.15.33-.23.49-.3.63-.62,1.25-.94,1.85-.08.14-.15.28-.22.42-.39.7-.78,1.38-1.2,2.05a.21.21,0,0,1,0,.06,37,37,0,0,1-2.82,3.95A31.6,31.6,0,0,1,602,302.81l-6.65.16-13.94,1.17,0,9.47,0,2.43v25.79l12.32-.61,16-3.14v-23.6c4-1.12,7.81-2.34,11.4-3.67l.2-.06h0c25.41-9.47,40-24.36,46-46,0,0,0,0,0-.06.26-.94.51-1.89.74-2.86A1.62,1.62,0,0,1,668.11,261.64Z"/></svg>