<svg id="Layer_1" data-name="Layer 1" xmlns="http://www.w3.org/2000/svg" viewBox="0 0 732.21 841.89"><defs><style>.cls-1{fill:#1d1d1b;}</style></defs><polygon class="cls-1" points="395.15 660.19 335.08 664.66 326.76 700.46 331.24 743.91 352.33 747.75 412.41 743.91 420.08 707.48 416.24 664.66 395.15 660.19"/><path class="cls-1" d="M600.37,354.08q1-4.09,1.78-8.3c.15-.72.28-1.44.42-2.16q.67-3.58,1.27-7.24l.36-2.26q.66-4.33,1.22-8.78c0-.23.06-.45.08-.67q.59-4.85,1-9.83l.18-2.29q.31-3.76.54-7.6.11-1.6.18-3.24c.13-2.4.23-4.84.31-7.29,0-1,.07-2,.1-3.08.08-3.43.14-6.9.14-10.41h0q0-12-1-23.58-.53-5.79-1.29-11.48-1.54-11.37-4.08-22.28-1.26-5.44-2.77-10.77-3-10.65-7-20.77a214.77,214.77,0,0,0-14-29,204.51,204.51,0,0,0-32-41.89C506,81.2,448.83,57.23,379.17,57.23a626.13,626.13,0,0,0-70.06,17c-10.39,3.22-20.32,6.64-29.68,10.32A305.94,305.94,0,0,0,235.14,106q-10,5.92-18.85,12.44a206.19,206.19,0,0,0-16.72,13.66A178.41,178.41,0,0,0,157,190.13a204,204,0,0,0-11,30.12q-3,10.59-5.1,21.95t-3.34,23.49a373.72,373.72,0,0,0-1.85,38.24h0a251.93,251.93,0,0,0,6.56,57.73v.22c1.14,4.88,2.48,9.65,3.91,14.37l44-2.16L251.65,362c-1.91-7.38-3.49-14.91-4.84-22.51-.51-2.87-1-5.75-1.4-8.64-.21-1.41-.43-2.82-.62-4.24-.17-1.2-.31-2.41-.46-3.62-.21-1.74-.42-3.48-.61-5.23-.11-1-.2-2-.3-3-.21-2.16-.41-4.32-.58-6.47l-.09-1.13c-.25-3.37-.46-6.75-.61-10.13-.08-1.7-.12-3.4-.17-5.09-.11-3.46-.21-6.92-.21-10.37,0-33.15,3.68-63.31,11.34-89.11a175.71,175.71,0,0,1,14.5-35.25c1.88-3.38,3.89-6.59,6-9.71,9.64-14.38,21.53-25.92,35.86-34a98.75,98.75,0,0,1,12.14-5.78c12.68-5,26.95-7.66,42.89-7.66,51.61,0,87.17,30.49,109.16,73.34,1.29,2.52,2.54,5.09,3.74,7.69a232.85,232.85,0,0,1,9.56,24.38,288.87,288.87,0,0,1,10.6,43.71c1,6,1.79,12,2.43,18.05s1.13,12.08,1.45,18.1.47,12,.47,18c0,3.52-.05,7-.13,10.44,0,1.08-.07,2.13-.1,3.2-.08,2.39-.17,4.77-.28,7.12-.06,1.2-.13,2.39-.2,3.58q-.19,3.39-.45,6.72c-.08,1.13-.17,2.25-.26,3.36q-.31,3.69-.71,7.32c-.08.8-.16,1.62-.25,2.42q-1.11,9.78-2.76,19c-.12.69-.26,1.36-.39,2q-.66,3.6-1.41,7.11c-.17.78-.34,1.56-.52,2.33-.51,2.29-1.05,4.56-1.62,6.79l-.51,2c-.69,2.6-1.41,5.15-2.17,7.67l-.21.71q-2.61,8.53-5.83,16.38c-.16.4-.34.78-.5,1.18-.9,2.15-1.83,4.27-2.8,6.34-.24.52-.49,1-.73,1.54-1,2-2,3.94-3,5.86l-.7,1.31c-1.22,2.22-2.48,4.39-3.78,6.49,0,.07-.08.14-.13.21a122.41,122.41,0,0,1-8.91,12.49c-17.53,21.54-41.39,34.89-72.29,37.39l-21,.51-44.1,3.71.13,30-.13,7.67v81.61l39-1.92,50.49-10V521.25c12.73-3.53,24.72-7.42,36.08-11.63l.62-.19v0c80.42-29.94,126.68-77,145.58-145.51,0-.06,0-.12,0-.18q1.25-4.45,2.33-9C600.29,354.46,600.33,354.27,600.37,354.08Z"/></svg>