<svg id="Layer_1" data-name="Layer 1" xmlns="http://www.w3.org/2000/svg" viewBox="0 0 1190.55 841.89"><defs><style>.cls-1{fill:#1d1d1b;}</style></defs><polygon class="cls-1" points="146.72 541.81 129.08 543.12 126.64 553.63 127.95 566.4 134.15 567.53 151.79 566.4 154.05 555.7 152.92 543.12 146.72 541.81"/><path class="cls-1" d="M207,451.89c.18-.8.36-1.62.52-2.44l.12-.63c.13-.7.26-1.41.37-2.13,0-.22.08-.44.11-.66q.19-1.27.36-2.58a1.36,1.36,0,0,0,0-.2c.12-.95.22-1.91.3-2.89l.06-.67c.06-.74.11-1.48.16-2.23,0-.32,0-.63.05-.95,0-.71.07-1.42.09-2.14l0-.91c0-1,0-2,0-3.06h0q0-3.52-.3-6.92c-.11-1.14-.23-2.26-.38-3.38-.3-2.22-.7-4.41-1.2-6.54-.25-1.07-.52-2.12-.81-3.17-.6-2.08-1.28-4.12-2.06-6.1a63,63,0,0,0-4.09-8.52,60.84,60.84,0,0,0-5.28-7.69,58.4,58.4,0,0,0-4.14-4.61c-11.68-11.74-28.49-18.78-48.95-18.78a183.93,183.93,0,0,0-20.58,5c-3,.94-6,1.95-8.72,3a89.9,89.9,0,0,0-13,6.29c-2,1.16-3.79,2.37-5.53,3.65a61.25,61.25,0,0,0-4.92,4,53.16,53.16,0,0,0-8,9.15,53.81,53.81,0,0,0-4.49,7.91,59.89,59.89,0,0,0-3.24,8.85q-.89,3.1-1.5,6.45t-1,6.9a108.71,108.71,0,0,0-.55,11.23h0a74.26,74.26,0,0,0,1.93,17v.06c.34,1.43.73,2.84,1.15,4.22l12.92-.63,18.07-3.57c-.56-2.16-1-4.38-1.42-6.61-.15-.84-.29-1.69-.41-2.54-.06-.41-.13-.82-.18-1.24s-.09-.71-.14-1.06l-.18-1.54-.09-.87c-.06-.64-.12-1.27-.17-1.9,0-.11,0-.22,0-.33-.08-1-.14-2-.18-3,0-.5,0-1,0-1.5,0-1-.06-2-.06-3A92.91,92.91,0,0,1,105,404.41a51.2,51.2,0,0,1,4.26-10.35c.55-1,1.14-1.94,1.75-2.85a31.09,31.09,0,0,1,10.54-10,28.42,28.42,0,0,1,3.56-1.7,34.08,34.08,0,0,1,12.6-2.25c15.16,0,25.61,9,32.07,21.54.38.74.74,1.5,1.1,2.26a71.45,71.45,0,0,1,2.81,7.16,85,85,0,0,1,3.11,12.84c.28,1.76.52,3.53.71,5.3s.33,3.55.43,5.32.14,3.53.14,5.28c0,1,0,2.06,0,3.07l0,.94c0,.7,0,1.4-.08,2.09l-.06,1.05c0,.66-.08,1.32-.13,2,0,.32-.05.65-.08,1-.06.72-.13,1.44-.21,2.15,0,.24,0,.48-.07.71q-.33,2.88-.81,5.59l-.12.6c-.13.7-.27,1.4-.41,2.09l-.15.68c-.16.67-.31,1.34-.48,2l-.15.59c-.2.76-.42,1.51-.64,2.25l-.06.21q-.76,2.51-1.71,4.81l-.15.35c-.26.63-.54,1.25-.82,1.86l-.22.45c-.28.59-.57,1.16-.87,1.72l-.21.39c-.36.65-.72,1.29-1.11,1.9l0,.06a34.47,34.47,0,0,1-2.61,3.67,29.4,29.4,0,0,1-21.24,11l-6.18.15-13,1.09,0,8.8,0,2.25v24l11.45-.56,14.83-2.92V501c3.74-1,7.26-2.18,10.6-3.42l.18-.06h0c23.62-8.79,37.21-22.63,42.76-42.74a.09.09,0,0,0,0,0c.25-.87.48-1.76.69-2.66A1,1,0,0,1,207,451.89Z"/><path class="cls-1" d="M203.59,378.78l-12.23-2.41.92-8.53,32.06.56,22-.56.93,8.53-13.52,2.41,29.64,85.59v12.78l33.72-98.37-14.45-2.41.92-8.53,20,.56,18.53-.56.93,8.53-11.68,2.41-43,116.72-20.56,5.37Z"/><path class="cls-1" d="M327.72,489.2l14.45-2.41v-108l-14.45-2.41.92-8.53,25.57.56,78.19-.56,2,35.58H424.8l-10.93-24.09-43.36-.55v45.57l21.5-.74,7.41-19.82h9.26l-1.85,25.38,1.85,26.12h-9.26L392,435.65l-21.5-.74V487l45.4-.55,12.6-25h9.81l-6.11,36.5-78-.56-25.57.56Z"/><path class="cls-1" d="M562.09,489.38l-.74,8.53-20.2-.56-15.19.56-36-57.25-2.4-2h-8.34v48.17l14.08,2.41-.93,8.71-27.23-.56-27.79.56-.93-8.71,14.45-2.41v-108l-14.45-2.41.93-8.53,27.42.56,41.31-.56c22.42-.18,40.21,11.12,40.21,32.24,0,19.83-18.53,30.2-40.39,34.83L525.4,444l27.79,42.43Zm-82.82-61.32h12c13.9,0,24.83-10,24.83-26.5,0-16.3-10-24.45-22.79-24.64l-14.08,1.3Z"/><path class="cls-1" d="M570.42,489.2l20-2.41V378.59l-22.79.56-9.08,26.12h-9.44V367.84l56.5.56,54.47-.56v37.43h-9.44l-9.08-26.12-22.79-.56v108.2l19.64,2.41-.93,8.71-32.79-.56-33.35.56Z"/><path class="cls-1" d="M663.06,489.2l14.45-2.41v-108l-14.45-2.41.92-8.53,27.79.56,26.13-.56.92,8.53-13,2.41v46.13h50.39V378.78l-13.34-2.41.93-8.53,26.49.56,27.42-.56.93,8.53-14.08,2.41v108l14.08,2.41-.93,8.71-27.42-.56-26.49.56-.93-8.71,13.34-2.41v-50.4H705.86v50.4l13,2.41-.92,8.71-26.13-.56-27.79.56Z"/><path class="cls-1" d="M804.42,489.2l14.45-2.41v-108l-14.45-2.41.93-8.53,27.79.56,27.6-.56.93,8.53-14.45,2.41v108l14.45,2.41-.93,8.71-27.6-.56-27.79.56Z"/><path class="cls-1" d="M900.39,407.68l-4.26-17.05v96.16l13.71,2.41-.56,8.71-20.19-.56-20.75.56-.93-8.71,14.45-2.41V379.33l-14.08-3,.93-8.53,15.19.56,19.64-.56,59.66,76.34,5,15.93V378.78l-13.71-2.41.55-8.53,20.2.56,20.75-.56.92,8.53-14.45,2.41v119.5H968.57Z"/><path class="cls-1" d="M1000.62,489.2l14.45-2.41v-108l-14.45-2.41.93-8.53,27.79.56,25.94-.56.92,8.53-12.78,2.41v49.09l5.56-2.78,48.72-46.31-13.52-2.41.92-8.53,20.38.56,22.24-.56.92,8.53L1114.56,379l-51.32,48,8.15,3.52,51.32,56.5,9.82,2.23-.92,8.71-15.75-.56-21.12.56-48-58.55-3.33-7v54.47l12.78,2.41-.92,8.71-25.94-.56-27.79.56Z"/></svg>